<svg width="39" height="44" viewBox="0 0 39 44" fill="none" xmlns="http://www.w3.org/2000/svg">
<g id="Logo_icon">
<path id="Rectangle 10" d="M17.3674 16.0458C17.3674 13.9904 19.0336 12.3242 21.089 12.3242V34.1575H17.3674V16.0458Z" fill="#B4006E"/>
<g id="Ellipse 5">
<path fill-rule="evenodd" clip-rule="evenodd" d="M9.42801 43.3374C14.635 43.3374 21.089 39.3824 21.089 34.1754C21.089 28.9685 14.635 24.4814 9.42801 24.4814V43.3374Z" fill="#4E3FE4"/>
<path d="M0 33.9094C0 39.1164 4.22106 43.3374 9.42801 43.3374V24.4814C4.22106 24.4814 0 28.7025 0 33.9094Z" fill="#B4006E"/>
</g>
<path id="Ellipse 4" fill-rule="evenodd" clip-rule="evenodd" d="M9.42801 43.3194C14.635 43.3194 21.089 39.3643 21.089 34.1574C21.089 28.9504 14.635 24.4634 9.42801 24.4634V43.3194Z" fill="#EC3066"/>
<path id="Vector 1" d="M19.156 7.07896C17.3713 9.43624 17.251 12.6794 17.4261 15.3949C17.5407 17.1708 19.0351 18.1952 20.6874 17.5343C21.9279 17.0381 24.9864 16.0108 28.708 14.8943C33.1939 13.5485 37.6128 11.9171 38.012 7.32709C38.5082 1.62066 36.5233 -0.736336 29.3282 1.4966C22.1332 3.72954 21.8258 3.55247 19.156 7.07896Z" fill="#EC3066"/>
</g>
</svg>
