<svg width="25" height="25" viewBox="0 0 25 25" fill="none" xmlns="http://www.w3.org/2000/svg">
<path d="M16.2071 14.7929C15.8166 14.4024 15.1834 14.4024 14.7929 14.7929C14.4024 15.1834 14.4024 15.8166 14.7929 16.2071L16.2071 14.7929ZM20.7929 22.2071C21.1834 22.5976 21.8166 22.5976 22.2071 22.2071C22.5976 21.8166 22.5976 21.1834 22.2071 20.7929L20.7929 22.2071ZM10.5 16.5C7.18629 16.5 4.5 13.8137 4.5 10.5H2.5C2.5 14.9183 6.08172 18.5 10.5 18.5V16.5ZM4.5 10.5C4.5 7.18629 7.18629 4.5 10.5 4.5V2.5C6.08172 2.5 2.5 6.08172 2.5 10.5H4.5ZM10.5 4.5C13.8137 4.5 16.5 7.18629 16.5 10.5H18.5C18.5 6.08172 14.9183 2.5 10.5 2.5V4.5ZM16.5 10.5C16.5 13.8137 13.8137 16.5 10.5 16.5V18.5C14.9183 18.5 18.5 14.9183 18.5 10.5H16.5ZM14.7929 16.2071L20.7929 22.2071L22.2071 20.7929L16.2071 14.7929L14.7929 16.2071Z" fill="white"/>
</svg>
