<svg width="35" height="35" viewBox="0 0 35 35" fill="none" xmlns="http://www.w3.org/2000/svg">
<path d="M8.75 15.4165V19.5835C8.75 22.2479 8.75 23.58 9.30934 24.3477C9.79718 25.0173 10.5463 25.4479 11.3704 25.5319C12.3154 25.6282 13.4667 24.9569 15.7682 23.6144L19.3399 21.5309C21.6107 20.2063 22.7462 19.544 23.1283 18.6815C23.4617 17.9291 23.4617 17.0708 23.1283 16.3184C22.7462 15.4559 21.6107 14.7935 19.3399 13.4689L15.7682 11.3854C13.4667 10.0429 12.3154 9.37165 11.3704 9.46798C10.5463 9.55199 9.79718 9.98259 9.30934 10.6522C8.75 11.4198 8.75 12.752 8.75 15.4165Z" />
<path d="M25.7917 7.2915C25.7917 6.73922 25.344 6.2915 24.7917 6.2915C24.2394 6.2915 23.7917 6.73922 23.7917 7.2915L25.7917 7.2915ZM23.7917 27.7082C23.7917 28.2605 24.2394 28.7082 24.7917 28.7082C25.344 28.7082 25.7917 28.2605 25.7917 27.7082H23.7917ZM15.7682 23.6144L15.2644 22.7506L15.7682 23.6144ZM19.3399 21.5309L19.8438 22.3947L19.3399 21.5309ZM19.3399 13.4689L19.8438 12.6051L19.8438 12.6051L19.3399 13.4689ZM15.7682 11.3854L16.2721 10.5216L15.7682 11.3854ZM23.1283 18.6815L22.2141 18.2764L23.1283 18.6815ZM23.1283 16.3184L22.2141 16.7235L23.1283 16.3184ZM9.30934 24.3477L10.1176 23.7589L9.30934 24.3477ZM11.3704 25.5319L11.269 26.5268L11.3704 25.5319ZM9.30934 10.6522L8.50111 10.0633L8.50111 10.0633L9.30934 10.6522ZM11.3704 9.46798L11.269 8.47313L11.3704 9.46798ZM23.7917 7.2915L23.7917 27.7082H25.7917V7.2915L23.7917 7.2915ZM7.75 15.4165V19.5835H9.75V15.4165H7.75ZM16.2721 24.4782L19.8438 22.3947L18.8361 20.6671L15.2644 22.7506L16.2721 24.4782ZM19.8438 12.6051L16.2721 10.5216L15.2644 12.2492L18.8361 14.3327L19.8438 12.6051ZM19.8438 22.3947C20.9622 21.7423 21.8613 21.219 22.523 20.7471C23.181 20.2778 23.7407 19.7681 24.0426 19.0866L22.2141 18.2764C22.1338 18.4575 21.9348 18.7101 21.3617 19.1188C20.7924 19.5248 19.9885 19.9949 18.8361 20.6671L19.8438 22.3947ZM18.8361 14.3327C19.9885 15.0049 20.7924 15.4751 21.3617 15.8811C21.9348 16.2898 22.1338 16.5424 22.2141 16.7235L24.0426 15.9133C23.7407 15.2319 23.181 14.7221 22.523 14.2528C21.8614 13.7809 20.9622 13.2575 19.8438 12.6051L18.8361 14.3327ZM24.0426 19.0866C24.4903 18.0762 24.4903 16.9237 24.0426 15.9133L22.2141 16.7235C22.4332 17.2179 22.4332 17.782 22.2141 18.2764L24.0426 19.0866ZM7.75 19.5835C7.75 20.896 7.74899 21.9497 7.8241 22.7682C7.8987 23.5813 8.05867 24.3293 8.50111 24.9366L10.1176 23.7589C10.0007 23.5984 9.88097 23.2965 9.81573 22.5855C9.75101 21.88 9.75 20.9354 9.75 19.5835H7.75ZM15.2644 22.7506C14.0966 23.4318 13.28 23.9069 12.6379 24.2065C11.9906 24.5084 11.6694 24.5572 11.4719 24.5371L11.269 26.5268C12.0165 26.603 12.7434 26.3642 13.4834 26.019C14.2285 25.6713 15.1383 25.1395 16.2721 24.4782L15.2644 22.7506ZM8.50111 24.9366C9.15604 25.8355 10.162 26.4139 11.269 26.5268L11.4719 24.5371C10.9305 24.4819 10.4383 24.1991 10.1176 23.7589L8.50111 24.9366ZM9.75 15.4165C9.75 14.0645 9.75101 13.1199 9.81573 12.4144C9.88097 11.7034 10.0007 11.4015 10.1176 11.241L8.50111 10.0633C8.05867 10.6705 7.8987 11.4186 7.8241 12.2317C7.74899 13.0503 7.75 14.104 7.75 15.4165H9.75ZM16.2721 10.5216C15.1383 9.86027 14.2285 9.32848 13.4834 8.98088C12.7433 8.63564 12.0165 8.39694 11.269 8.47313L11.4719 10.4628C11.6694 10.4427 11.9907 10.4914 12.6379 10.7934C13.28 11.0929 14.0966 11.568 15.2644 12.2492L16.2721 10.5216ZM10.1176 11.241C10.4383 10.8008 10.9305 10.518 11.4719 10.4628L11.269 8.47313C10.162 8.58598 9.15605 9.16437 8.50111 10.0633L10.1176 11.241Z" />
</svg>
