<svg width="20" height="16" viewBox="0 0 20 16" fill="none" xmlns="http://www.w3.org/2000/svg">
<path d="M18.25 14.8329C18.25 13.2365 16.7195 11.8783 14.5833 11.3749M12.75 14.833C12.75 12.808 10.2876 11.1663 7.25 11.1663C4.21243 11.1663 1.75 12.808 1.75 14.833M12.75 8.41634C14.775 8.41634 16.4167 6.77472 16.4167 4.74967C16.4167 2.72463 14.775 1.08301 12.75 1.08301M7.25 8.41634C5.22496 8.41634 3.58333 6.77472 3.58333 4.74967C3.58333 2.72463 5.22496 1.08301 7.25 1.08301C9.27504 1.08301 10.9167 2.72463 10.9167 4.74967C10.9167 6.77472 9.27504 8.41634 7.25 8.41634Z" stroke="#878787" stroke-width="2" stroke-linecap="round" stroke-linejoin="round"/>
</svg>
